<?xml version="1.0" encoding="utf-8"?>
<!-- Generator: Adobe Illustrator 16.0.0, SVG Export Plug-In . SVG Version: 6.00 Build 0)  -->
<!DOCTYPE svg PUBLIC "-//W3C//DTD SVG 1.1//EN" "http://www.w3.org/Graphics/SVG/1.1/DTD/svg11.dtd">
<svg version="1.1" id="道路" xmlns="http://www.w3.org/2000/svg" xmlns:xlink="http://www.w3.org/1999/xlink" x="0px" y="0px"
	 width="4875.4px" height="2581.51px" viewBox="0 0 4875.4 2581.51" enable-background="new 0 0 4875.4 2581.51"
	 xml:space="preserve">
<g>
	<g id="LWPOLYLINE_815_">
		<g>
			<path fill="#7F9FFF" d="M2195.167,201.367c0.703,0,1.384,0.383,1.739,1.057l5.91,11.212l44.521,82.903l5.237,10.139
				l54.392,99.484l48.801,93.606l4.677,8.565l41.944,77.738c0.055,0.101,0.101,0.206,0.138,0.314l4.317,12.887
				c0.015,0.042,0.026,0.084,0.039,0.125l3.285,12.427l3.171,10.489l38.4,137.542c0.013,0.045,0.023,0.091,0.032,0.136l4.287,20.813
				l32.761,120.731c0.009,0.033,0.017,0.065,0.022,0.099l2.478,11.364l29.01,112.486l5.347,12.006
				c0.034,0.077,0.063,0.155,0.09,0.235l3.317,10.979c0.048,0.156,0.075,0.318,0.084,0.48l0.927,18.352l14.484,86.936
				c0.006,0.042,0.012,0.082,0.017,0.125l19.925,192.659l24.097,232.86l0.681,6.49l33.551,310.692c0.119,1.097-0.663,2.08-1.745,2.2
				c-1.075,0.119-2.054-0.67-2.171-1.766l-33.553-310.7l-0.681-6.5l-24.098-232.862l-19.918-192.597l-14.493-86.988
				c-0.012-0.076-0.021-0.153-0.024-0.23l-0.92-18.22l-3.21-10.621l-5.363-12.044c-0.046-0.102-0.083-0.208-0.111-0.314
				l-29.068-112.726l-2.482-11.389l-32.763-120.743c-0.011-0.041-0.021-0.082-0.029-0.123l-4.286-20.807l-38.37-137.431
				l-3.179-10.518l-3.288-12.431l-4.243-12.658l-41.858-77.58l-4.688-8.591l-48.802-93.607l-54.396-99.489l-5.243-10.152
				l-44.513-82.891l-5.918-11.225c-0.513-0.971-0.15-2.18,0.811-2.701C2194.536,201.443,2194.854,201.367,2195.167,201.367z"/>
		</g>
	</g>
	<g id="LWPOLYLINE_814_">
		<g>
			<path fill="none" stroke="#7F9FFF" stroke-width="20" stroke-miterlimit="10" d="M1815.714,1308.351
				c0,0-56.756-92.924-56.755-93.312l0.979-264.604c-39.306-144.867-80.593-288.816-124.296-432.438
				c-0.053-0.175-0.082-0.357-0.087-0.54l-0.759-31.314"/>
		</g>
	</g>
	<g id="LWPOLYLINE_813_">
		<g>
			<path fill="none" stroke="#7F9FFF" stroke-width="20" stroke-miterlimit="10" d="M2355.695,940.451l50.072,169.983
				c0.041,0.132,0.065,0.268,0.077,0.405l13.086,496.146l52.802,281.713"/>
		</g>
	</g>
	<g id="LWPOLYLINE_812_">
		<g>
			<path fill="none" stroke="#7F9FFF" stroke-width="20" stroke-miterlimit="10" d="M1629.194,2200.022l71.854,140.845l11.295,14.1
				l14.919,6.198l15.383,1.182l991.916,13.053"/>
		</g>
	</g>
	<g id="LWPOLYLINE_810_">
		<g>
			<path fill="none" stroke="#7F9FFF" stroke-width="20" stroke-miterlimit="10" d="M2508.134,1354.239l3.505,241.622
				l62.211,298.512"/>
		</g>
	</g>
	<g id="LWPOLYLINE_809_">
		<g>
			<path fill="#7F9FFF" d="M2268.462,1142.547c0.905,0,1.721,0.636,1.922,1.568l1.64,7.566l10.241,26.314l32.952,78.206
				c0.105,0.247,0.158,0.513,0.158,0.782l0.044,59.065l0.655,120.567l-1.902,116.871l-0.471,60.563
				c-0.007,1.103-0.866,1.99-1.982,1.983c-1.088-0.007-1.965-0.904-1.958-2.007l0.028-4.665l0.443-55.925l1.902-116.844
				l-0.656-120.533l-0.043-58.668l-32.814-77.883l-10.322-26.514c-0.039-0.099-0.068-0.201-0.09-0.305l-1.673-7.726
				c-0.233-1.076,0.438-2.141,1.502-2.375C2268.18,1142.562,2268.322,1142.547,2268.462,1142.547z"/>
		</g>
	</g>
	<g id="LWPOLYLINE_808_">
		<g>
			<path fill="#7F9FFF" d="M2118.661,1198.711c0.844,0,1.625,0.553,1.883,1.412l21.353,70.829c0.089,0.297,0.108,0.611,0.058,0.918
				l-16.836,100.176l1.306,51.592l-2.912,184.29l7.881,46.359c0.186,1.085-0.534,2.117-1.606,2.304
				c-1.07,0.186-2.091-0.542-2.274-1.628l-7.912-46.541c-0.021-0.123-0.03-0.247-0.028-0.372l2.916-184.394l-1.312-51.706
				c-0.003-0.128,0.005-0.257,0.027-0.385l16.79-99.902l-21.214-70.376c-0.318-1.054,0.269-2.17,1.309-2.491
				C2118.275,1198.739,2118.47,1198.711,2118.661,1198.711z"/>
		</g>
	</g>
	<g id="LWPOLYLINE_807_">
		<g>
			<path fill="#7F9FFF" d="M3224.23,1276.966c0.998,0,1.854,0.766,1.957,1.793c0.109,1.098-0.679,2.076-1.761,2.188l-25.621,2.639
				l-114.598,11.624l-140.435,8.521l-8.64,3.305l-15.093,4.92c-0.117,0.037-0.237,0.064-0.36,0.08l-104.473,13.118l-128.42,12.575
				l-124.045,11.725l-146.878,17.603c-1.079,0.13-2.061-0.651-2.188-1.747c-0.129-1.094,0.645-2.084,1.725-2.215l146.926-17.607
				l124.088-11.73l128.36-12.567l104.235-13.089l14.824-4.829l8.825-3.377c0.186-0.072,0.38-0.114,0.579-0.125l140.654-8.533
				l114.516-11.617l25.617-2.638C3224.096,1276.97,3224.164,1276.966,3224.23,1276.966z"/>
		</g>
	</g>
	<g id="LWPOLYLINE_806_">
		<g>
			<path fill="#7F9FFF" d="M4112.568,1410.272c0.08,0,0.158,0.006,0.233,0.015l30.507,3.662c0.118,0.014,0.234,0.04,0.35,0.076
				l26.951,8.445c0.047,0.016,0.094,0.031,0.14,0.05l174.233,69.503c1.012,0.404,1.508,1.563,1.11,2.589
				c-0.399,1.023-1.543,1.529-2.556,1.124l-174.16-69.474l-26.711-8.371l-30.158-3.619l-39.493,2.19l-50.246,6.492l-59.336,6.526
				l-117.04,13.906l-176.084,19.141l-147.6,19.99l-128.076,12.347l-118.542,12.904l-24.134,2.993l-2.743,0.402l-4.114,0.479
				l-131.912,14.263l-148.467,14.063l-125.488,13.239l-127.725,13.936l-124.617,15.163l-77.135,10.375l-92.61,11.223l-21.726,2.284
				l-83.542,5.18l-80.235,5.806l-16.313,2.824l-59.522,17.024l-26.483,13.219l-46.365,26.362c-0.186,0.104-0.386,0.18-0.595,0.221
				l-31.015,6.004l-99.131,22.25l-37.478,8.508c-0.052,0.012-0.104,0.021-0.158,0.029l-33.703,4.768
				c-0.104,0.015-0.205,0.021-0.313,0.019l-23.054-0.472c-0.222-0.004-0.44-0.047-0.648-0.125l-26.448-9.986l-51.45-21.905
				l-19.854-5.78l-43.197-10.982l-50.791-10.798l-12.906-3.328l-76.104,17.512c-0.103,0.024-0.207,0.039-0.312,0.046l-22.149,1.422
				c-0.276,0.019-0.549-0.022-0.808-0.119l-14.106-5.28l-78.464-13.078l-174.159-36.159l-34.473-5.506l-61.76-0.995l-240.163-12.457
				l-63.459,25.979l-119.116,49.128l-87.201,35.901l-15.848,5.996l-79.963,35.461c-0.996,0.441-2.158-0.019-2.596-1.027
				c-0.435-1.011,0.019-2.187,1.016-2.629l80.012-35.483c0.033-0.017,0.066-0.029,0.102-0.042l15.847-5.995l87.146-35.878
				l119.12-49.13l63.868-26.147c0.266-0.109,0.553-0.156,0.839-0.145l240.528,12.477l61.827,0.997
				c0.092,0.001,0.185,0.01,0.275,0.023l34.701,5.544l174.172,36.16l78.574,13.097c0.125,0.02,0.246,0.052,0.362,0.097l13.893,5.199
				l21.574-1.385l76.415-17.583c0.304-0.07,0.621-0.066,0.923,0.013l13.284,3.428l50.784,10.795l43.337,11.018l20.032,5.832
				c0.075,0.021,0.146,0.049,0.219,0.078l51.481,21.922l26.061,9.838l22.564,0.462l33.469-4.735l37.4-8.49l99.191-22.263
				l30.756-5.955l46.133-26.229c0.03-0.018,0.062-0.034,0.094-0.05l26.691-13.324c0.108-0.053,0.221-0.096,0.335-0.131l59.798-17.1
				c0.066-0.019,0.135-0.034,0.202-0.045l16.513-2.862c0.063-0.012,0.129-0.02,0.191-0.023l80.354-5.813l83.479-5.175l21.611-2.272
				l92.555-11.215l77.134-10.375l124.666-15.172l127.755-13.936l125.517-13.244l148.462-14.063l131.869-14.258l4.041-0.47
				l2.729-0.401l24.206-3.004l118.596-12.909l128.027-12.341l147.575-19.988l176.115-19.144l117.039-13.905l59.315-6.524
				l50.279-6.498c0.047-0.007,0.094-0.012,0.141-0.015l39.735-2.204C4112.499,1410.274,4112.535,1410.272,4112.568,1410.272z"/>
		</g>
	</g>
	<g id="LWPOLYLINE_805_">
		<g>
			<path fill="none" stroke="#7F9FFF" stroke-width="20" stroke-miterlimit="10" d="M-2.415,2586.516l415.842-323.245
				c66.678-41.71,125.647-94.321,183.253-147.516c58.292-53.827,117.276-106.875,175.613-160.652
				c58.742-54.152,117.747-110.82,183.821-156.104c62.106-42.563,142.641-67.55,213.999-90.018
				c163.227-51.396,313.31,17.396,463.844,76.393c81.768,32.045,163.509,64.16,245.041,96.801
				c75.25,30.126,152.115,69.843,231.804,86.065c82.945,16.885,942.974,101.895,1022.334,126.218
				c79.179,24.268,148.677,58.905,216.976,105.451c66.933,45.615,134.758,95.031,207.848,130.378
				c143.541,69.416,313.393,58.817,468.487,61.219c56.745,0.878,113.298,7.717,170.053,9.443c59.343,1.805,118.696,3.24,178.05,4.62
				c122.194,2.841,244.404,5.446,366.53,10.559l52.288,172.336"/>
		</g>
	</g>
	<g id="LWPOLYLINE_804_">
		<g>
			<path fill="#7F9FFF" d="M2665.316,1122.589c0.93,0,1.757,0.668,1.934,1.626l1.67,9.019c0.011,0.058,0.02,0.116,0.025,0.176
				l1.926,20.224l16.382,172.989l1.296,8.825c0.006,0.042,0.011,0.085,0.014,0.128l0.767,9.315l11.063,97.101l6.238,57.199
				l6.622,65.711l0.771,5.006c0.168,1.09-0.566,2.109-1.643,2.278c-1.076,0.173-2.083-0.575-2.25-1.663l-0.779-5.059
				c-0.006-0.035-0.011-0.068-0.014-0.104l-6.625-65.749l-6.235-57.176l-11.067-97.15l-0.769-9.315l-1.292-8.813
				c-0.006-0.035-0.01-0.069-0.013-0.104l-16.388-173.04l-1.918-20.133l-1.653-8.929c-0.2-1.084,0.504-2.126,1.573-2.329
				C2665.073,1122.601,2665.195,1122.589,2665.316,1122.589z"/>
		</g>
	</g>
	<g id="LWPOLYLINE_803_">
		<g>
			<path fill="none" stroke="#7F9FFF" stroke-width="20" stroke-miterlimit="10" d="M4015.076,2378.808l73.698-238.848
				c0.032-0.082,0.07-0.16,0.113-0.238l112.893-261.435l141.806-357.096c0.016-0.038,0.032-0.075,0.049-0.112l97.57-233.852
				l56.912-144.307l17.626-596.828"/>
		</g>
	</g>
	<g id="LWPOLYLINE_802_">
		<g>
			<path fill="none" stroke="#7F9FFF" stroke-width="20" stroke-miterlimit="10" d="M1547.666,1680.116l30.447,39.478
				l518.712,208.384l253.422-45.146c0.136-0.022,0.272-0.033,0.411-0.027l568.478,30.272l783.289-84.39"/>
		</g>
	</g>
	<g id="LWPOLYLINE_801_">
		<g>
			<path fill="#7F9FFF" d="M2712.079,1568.222c0.995,0,1.851,0.762,1.957,1.784l1.58,14.859l36.318,320.432l1.864,7.395
				c0.27,1.066-0.367,2.152-1.423,2.426c-1.052,0.272-2.126-0.372-2.395-1.44l-1.897-7.522c-0.021-0.088-0.039-0.177-0.049-0.266
				l-36.334-320.581l-1.583-14.881c-0.115-1.096,0.67-2.077,1.752-2.194C2711.939,1568.225,2712.01,1568.222,2712.079,1568.222z"/>
		</g>
	</g>
	<g id="LWPOLYLINE_800_">
		<g>
			<path fill="none" stroke="#7F9FFF" stroke-width="20" stroke-miterlimit="10" d="M1274.745,1624.404
				c87.602-71.277,176.459-140.999,263.942-212.442c0.107-0.089,575.848-210.633,859.619-319.246
				c2.816-1.006,261.571-85.512,261.571-85.512c77.892-30.203,519.637-143.575,654.836-181.624c0.107-0.031,0.214-0.051,0.326-0.063
				c194.327-20.245,674.037-74.532,717.983-74.532"/>
		</g>
	</g>
	<g id="LWPOLYLINE_799_">
		<g>
			<path fill="none" stroke="#7F9FFF" stroke-width="20" stroke-miterlimit="10" d="M1849.216,659.191"/>
			<polyline fill="none" stroke="#7F9FFF" stroke-width="20" stroke-miterlimit="10" points="1849.095,656.999 1918.178,911.473 
				2010.798,1237.709 2042.506,1370.099 2052.986,1684.4 2096.825,1927.978 			"/>
		</g>
		<polyline fill="none" stroke="#7F9FFF" stroke-width="20" stroke-miterlimit="10" points="2116.693,1207.234 2139.848,1269.546 
			2121.203,1371.565 2119.571,1608.05 2127.512,1654.963 		"/>
		<polyline fill="none" stroke="#7F9FFF" stroke-width="20" stroke-miterlimit="10" points="2313.701,1614.052 2313.581,1258.973 
			2268.209,1152.692 		"/>
		<path fill="none" stroke="#7F9FFF" stroke-width="20" stroke-miterlimit="10" d="M507.035,1781.14l441.61-184.596l322.088,21.038
			l282.931,60.605l99.065-27.149l127.656,31.15l76.479,35.617l224.444-44.839c0,0,80.303-46.568,143.555-55.223
			s256.935-21.674,256.935-21.674l1631.003-185.783l656.746,262.767"/>
		<polyline fill="none" stroke="#7F9FFF" stroke-width="20" stroke-miterlimit="10" points="2194.184,201.635 2400.359,589.001 
			2524.424,1040.231 2620.995,1895.527 		"/>
		<polyline fill="none" stroke="#7F9FFF" stroke-width="20" stroke-miterlimit="10" points="2304.979,144.746 2516.347,550.724 
			2652.347,1012.604 2750.113,1903.668 		"/>
		
			<line fill="none" stroke="#7F9FFF" stroke-width="20" stroke-miterlimit="10" x1="2413.678" y1="1365.31" x2="3233.278" y2="1268.93"/>
		<path fill="none" stroke="#7F9FFF" stroke-width="20" stroke-miterlimit="10" d="M2355.707,940.489l842.683,536.021
			c0,0,50.756,28.17,55.958,105.978l54.789,531.854l-6.773,294.468"/>
	</g>
	<g id="LWPOLYLINE_798_">
		<g>
			<path fill="#7F9FFF" d="M2008.83,1237.709c0.857,0,1.646,0.573,1.894,1.45l2.442,8.704l24.71,102.264l1.643,6.091
				c0.01,0.033,0.019,0.067,0.024,0.103l2.963,13.778c0.02,0.092,0.033,0.185,0.04,0.277l4.847,66.64l4.528,161.38l1.065,86.005
				c0.011,1.103-0.861,2.005-1.95,2.016c-1.063,0.01-1.979-0.872-1.99-1.975l-0.037-3.552l-1.028-82.414l-4.523-161.258
				l-4.831-66.408l-2.921-13.592l-1.643-6.092l-24.705-102.244l-2.424-8.632c-0.297-1.06,0.311-2.164,1.356-2.465
				C2008.47,1237.734,2008.652,1237.709,2008.83,1237.709z"/>
		</g>
	</g>
	<polyline fill="none" stroke="#7F9FFF" stroke-width="20" stroke-miterlimit="10" points="17.939,37.799 235.449,183.614 
		304.88,174.043 471.512,365.76 750.936,426.521 1634.796,486.142 	"/>
</g>
</svg>
