<?xml version="1.0" encoding="utf-8"?>
<!-- Generator: Adobe Illustrator 16.0.0, SVG Export Plug-In . SVG Version: 6.00 Build 0)  -->
<!DOCTYPE svg PUBLIC "-//W3C//DTD SVG 1.1//EN" "http://www.w3.org/Graphics/SVG/1.1/DTD/svg11.dtd">
<svg version="1.1" id="道路" xmlns="http://www.w3.org/2000/svg" xmlns:xlink="http://www.w3.org/1999/xlink" x="0px" y="0px"
	 width="4875.4px" height="2581.51px" viewBox="0 0 4875.4 2581.51" enable-background="new 0 0 4875.4 2581.51"
	 xml:space="preserve">
<rect x="2.18" fill="none" stroke="#7F9FFF" stroke-miterlimit="10" width="4873.221" height="2583.102"/>
<g id="LWPOLYLINE_8_">
	<g>
		<path fill="#7F9FFF" d="M1531.484,1722.091c0.225,0,0.455,0.04,0.68,0.123c1.02,0.382,1.543,1.528,1.167,2.563l-17.556,48.323
			c-0.376,1.035-1.509,1.564-2.529,1.185c-1.021-0.38-1.544-1.528-1.168-2.562l17.557-48.323
			C1529.928,1722.592,1530.682,1722.091,1531.484,1722.091z"/>
	</g>
</g>
<g id="LWPOLYLINE_179_">
	<g>
		<path fill="#7F9FFF" d="M1421.556,1757.383c0.146,0,0.296,0.018,0.444,0.052c1.061,0.248,1.721,1.32,1.477,2.395l-20.47,89.895
			c-0.08,0.35-0.25,0.671-0.496,0.93l-7.607,8.066c-0.167,0.177-0.364,0.32-0.582,0.425l-63.761,30.573l-126.302,56.379
			l-16.958,8.254l-56.118,27.719l-78.692,40.96c-0.969,0.504-2.155,0.118-2.652-0.863c-0.498-0.979-0.117-2.183,0.852-2.687
			l78.729-40.979l56.167-27.744l17.026-8.285l126.312-56.383l63.383-30.395l6.982-7.402l20.349-89.361
			C1419.848,1758.008,1420.659,1757.383,1421.556,1757.383z"/>
	</g>
</g>
<g id="LWPOLYLINE_251_">
	<g>
		<path fill="#7F9FFF" d="M1335.023,1155.779c0.577,0,1.149,0.256,1.539,0.749l62.812,79.481l67.404,82.466l74.676,93.783
			c0.155,0.194,0.272,0.417,0.346,0.656l58.854,190.091c0.325,1.052-0.252,2.172-1.291,2.502c-1.039,0.329-2.144-0.256-2.47-1.307
			l-58.739-189.732l-74.425-93.468l-67.408-82.472l-62.83-79.509c-0.682-0.859-0.542-2.115,0.307-2.804
			C1334.157,1155.922,1334.592,1155.779,1335.023,1155.779z"/>
	</g>
</g>
<g id="LWPOLYLINE_300_">
	<g>
		<path fill="#7F9FFF" d="M1738.013,1543.308c0.829,0,1.602,0.536,1.872,1.377c0.338,1.047-0.226,2.174-1.26,2.517l-39.246,12.987
			l-7.402,71.447c-0.112,1.098-1.082,1.893-2.165,1.777c-1.082-0.115-1.866-1.096-1.753-2.192l7.535-72.735
			c0.081-0.782,0.609-1.443,1.348-1.688l40.459-13.39C1737.604,1543.339,1737.811,1543.308,1738.013,1543.308z"/>
	</g>
</g>
<g id="LWPOLYLINE_308_">
	<g>
		<path fill="#7F9FFF" d="M1509.087,1140.707c0.479,0,0.957,0.175,1.335,0.529l79.533,74.362c0.066,0.063,0.129,0.131,0.187,0.201
			l64.146,79.313l45.43,58.561c0.08,0.104,0.15,0.216,0.208,0.333l4.018,8.043c0.017,0.032,0.03,0.064,0.046,0.1l44.305,102.372
			c0.138,0.317,0.191,0.668,0.155,1.015l-15.637,147.605l30.676,68.796c0.05,0.109,0.089,0.225,0.118,0.341l3.845,15.627
			c0.051,0.21,0.069,0.427,0.051,0.642l-7.879,99.563c-0.087,1.098-1.036,1.916-2.121,1.828s-1.893-1.05-1.807-2.147l7.854-99.237
			l-3.723-15.134l-1.964-4.38l-28.862-64.752c-0.144-0.323-0.201-0.68-0.163-1.033l15.639-147.618l-44.071-101.837l-3.904-7.816
			l-45.285-58.372l-64.03-79.175l-79.434-74.269c-0.799-0.748-0.848-2.009-0.109-2.819
			C1508.027,1140.924,1508.556,1140.707,1509.087,1140.707z"/>
	</g>
</g>
<g id="LWPOLYLINE_339_">
	<g>
		<path fill="#7F9FFF" d="M1916.182,1550.583c0.029,0,0.059,0.001,0.088,0.002l32.698,1.461c1.087,0.049,1.931,0.983,1.881,2.082
			c-0.048,1.103-0.967,1.953-2.055,1.906l-32.467-1.451l-38.288,7.45l-69.494,17.517l-76.93,35.731l-64.28,28.327
			c-0.998,0.439-2.159-0.021-2.592-1.033c-0.436-1.012,0.021-2.186,1.02-2.626l64.246-28.313l77.062-35.793
			c0.111-0.051,0.228-0.092,0.346-0.123l69.723-17.571c0.035-0.01,0.069-0.018,0.104-0.023l38.566-7.505
			C1915.933,1550.596,1916.057,1550.583,1916.182,1550.583z"/>
	</g>
</g>
<g id="LWPOLYLINE_362_">
	<g>
		<path fill="#7F9FFF" d="M1700.624,1666.146c0.188,0,0.379,0.027,0.568,0.086c1.042,0.317,1.632,1.431,1.318,2.485l-28.664,96.417
			c-0.313,1.056-1.411,1.653-2.454,1.335c-1.043-0.316-1.633-1.431-1.318-2.485l28.663-96.416
			C1698.994,1666.703,1699.776,1666.146,1700.624,1666.146z"/>
	</g>
</g>
<g id="LWPOLYLINE_366_">
	<g>
		<path fill="#7F9FFF" d="M1636.62,1574.126c0.745,0,1.458,0.43,1.791,1.159l29.927,65.657c0.141,0.306,0.2,0.642,0.176,0.978
			l-1.253,17.907c-0.078,1.1-1.02,1.929-2.104,1.847c-1.085-0.076-1.902-1.03-1.824-2.131l1.217-17.394l-29.715-65.191
			c-0.456-1-0.023-2.186,0.963-2.646C1636.063,1574.187,1636.345,1574.126,1636.62,1574.126z"/>
	</g>
</g>
<g id="LWPOLYLINE_385_">
	<g>
		<path fill="#7F9FFF" d="M1652.288,1654.567c0.384,0,0.771,0.113,1.112,0.35c0.896,0.624,1.126,1.864,0.511,2.775l-8.62,12.736
			l-22.344,74.879c-0.314,1.056-1.414,1.652-2.456,1.334c-1.042-0.319-1.631-1.434-1.316-2.488l22.433-75.176
			c0.059-0.195,0.146-0.382,0.261-0.549l8.792-12.994C1651.043,1654.872,1651.66,1654.567,1652.288,1654.567z"/>
	</g>
</g>
<g id="LWPOLYLINE_455_">
	<g>
		<path fill="#7F9FFF" d="M2049.952,1596.455c1.052,0,1.924,0.842,1.967,1.917c0.043,1.101-0.802,2.029-1.889,2.073l-100.124,4.071
			c-0.046,0.002-0.094,0.002-0.14,0.001l-34.221-1.041l-32.451,1.771l-57.712,13.514l-76.019,36.289l-39.164,17.03
			c-1,0.435-2.158-0.033-2.588-1.047c-0.431-1.012,0.031-2.186,1.031-2.62l39.104-17.003l76.146-36.351
			c0.127-0.061,0.261-0.106,0.396-0.139l58.083-13.602c0.111-0.027,0.224-0.042,0.338-0.048l32.704-1.783
			c0.055-0.003,0.11-0.004,0.166-0.002l34.233,1.04l100.056-4.07C2049.898,1596.455,2049.925,1596.455,2049.952,1596.455z"/>
	</g>
</g>
<g id="LWPOLYLINE_457_">
	<g>
		<path fill="#7F9FFF" d="M1946.614,1435.726c0.97,0,1.814,0.727,1.95,1.727c0.146,1.093-0.609,2.098-1.688,2.247l-199.468,27.51
			l-130.737,131.851c-0.207,0.208-0.455,0.365-0.729,0.465l-166.697,60.25c-1.025,0.371-2.152-0.169-2.519-1.208
			c-0.365-1.038,0.169-2.18,1.193-2.55l166.283-60.101l130.893-132.007c0.306-0.309,0.699-0.506,1.124-0.565l200.123-27.6
			C1946.436,1435.729,1946.525,1435.726,1946.614,1435.726z"/>
	</g>
</g>
<g id="LWPOLYLINE_458_">
	<g>
		<path fill="#7F9FFF" d="M1513.928,1770.415c0.229,0,0.463,0.041,0.69,0.127l266.916,101.094c0.087,0.033,0.172,0.072,0.254,0.118
			l77.548,42.882l183.747,73.616l11.878,4.763l2.073,0.158l18.739,1.363c1.084,0.078,1.902,1.033,1.823,2.133
			c-0.077,1.099-1.021,1.926-2.104,1.847l-21.122-1.544c-0.197-0.015-0.392-0.059-0.575-0.133l-27.018-10.827l-169.004-67.711
			c-0.074-0.028-0.147-0.063-0.219-0.104l-77.531-42.872l-266.784-101.044c-1.02-0.385-1.536-1.535-1.155-2.567
			C1512.378,1770.911,1513.13,1770.416,1513.928,1770.415z"/>
	</g>
</g>
<g id="LWPOLYLINE_465_">
	<g>
		<path fill="#7F9FFF" d="M1040.787,979.022c0.543,0,1.084,0.227,1.475,0.671l18.119,20.7l68.424,86.271l114.529,144.438
			l63.24,79.574l65.013,81.697l75.481,96.996l45.03,54.094c0.095,0.112,0.175,0.233,0.242,0.364l32.058,62.355
			c0.059,0.114,0.105,0.233,0.143,0.356l6.337,21.732l12.671,46.737c0.083,0.309,0.093,0.63,0.027,0.942l-10.166,48.547
			c-0.227,1.078-1.271,1.767-2.335,1.538s-1.745-1.287-1.52-2.367l10.066-48.069l-12.534-46.237l-6.273-21.511l-31.869-61.988
			l-44.933-53.977l-75.509-97.027l-65-81.683l-63.241-79.579l-114.53-144.438l-68.362-86.195l-18.058-20.627
			c-0.721-0.824-0.646-2.085,0.167-2.815C1039.855,979.188,1040.322,979.022,1040.787,979.022z"/>
	</g>
</g>
<g id="LWPOLYLINE_531_">
	<g>
		<path fill="#7F9FFF" d="M1421.558,1757.383c0.091,0,0.182,0.007,0.271,0.021l92.37,13.031c1.078,0.152,1.83,1.159,1.679,2.252
			c-0.15,1.091-1.146,1.854-2.222,1.699l-92.067-12.988l-94.667,16.438l-54.285,10.358l-123.26,38.468l-75.771,27.906
			l-49.179,30.966l-39.755,28.233c-0.891,0.634-2.119,0.415-2.744-0.487c-0.625-0.903-0.408-2.146,0.482-2.778l39.8-28.268
			c0.03-0.021,0.06-0.041,0.09-0.062l49.398-31.104c0.116-0.074,0.238-0.134,0.368-0.182l76.057-28.01l123.459-38.532
			c0.071-0.021,0.143-0.04,0.215-0.055l54.426-10.385l95-16.495C1421.334,1757.393,1421.446,1757.383,1421.558,1757.383z"/>
	</g>
</g>
<g id="LWPOLYLINE_553_">
	<g>
		<path fill="#7F9FFF" d="M4112.568,1410.272c0.08,0,0.158,0.006,0.233,0.015l30.507,3.662c0.118,0.014,0.234,0.04,0.35,0.076
			l26.951,8.445c0.047,0.016,0.094,0.031,0.14,0.05l174.233,69.503c1.012,0.404,1.508,1.563,1.11,2.589
			c-0.399,1.023-1.543,1.529-2.556,1.124l-174.16-69.474l-26.711-8.371l-30.158-3.619l-39.493,2.19l-50.246,6.492l-59.336,6.526
			l-117.04,13.906l-176.084,19.141l-147.6,19.99l-128.076,12.347l-118.542,12.904l-24.134,2.993l-2.743,0.402l-4.114,0.479
			l-131.912,14.263l-148.467,14.063l-125.488,13.239l-127.725,13.936l-124.617,15.163l-77.135,10.375l-92.61,11.223l-21.726,2.284
			l-83.542,5.18l-80.235,5.806l-16.313,2.824l-59.522,17.024l-26.483,13.219l-46.365,26.362c-0.186,0.104-0.386,0.18-0.595,0.221
			l-31.015,6.004l-99.131,22.25l-37.478,8.508c-0.052,0.012-0.104,0.021-0.158,0.029l-33.703,4.768
			c-0.104,0.015-0.205,0.021-0.313,0.019l-23.054-0.472c-0.222-0.004-0.44-0.047-0.648-0.125l-26.448-9.986l-51.45-21.905
			l-19.854-5.78l-43.197-10.982l-50.791-10.798l-12.906-3.328l-76.104,17.512c-0.103,0.024-0.207,0.039-0.312,0.046l-22.149,1.422
			c-0.276,0.019-0.549-0.022-0.808-0.119l-14.106-5.28l-78.464-13.078l-174.159-36.159l-34.473-5.506l-61.76-0.995l-240.163-12.457
			l-63.459,25.979l-119.116,49.128l-87.201,35.901l-15.848,5.996l-79.963,35.461c-0.996,0.441-2.158-0.019-2.596-1.027
			c-0.435-1.011,0.019-2.187,1.016-2.629l80.012-35.483c0.033-0.017,0.066-0.029,0.102-0.042l15.847-5.995l87.146-35.878
			l119.12-49.13l63.868-26.147c0.266-0.109,0.553-0.156,0.839-0.145l240.528,12.477l61.827,0.997
			c0.092,0.001,0.185,0.01,0.275,0.023l34.701,5.544l174.172,36.16l78.574,13.097c0.125,0.02,0.246,0.052,0.362,0.097l13.893,5.199
			l21.574-1.385l76.415-17.583c0.304-0.07,0.621-0.066,0.923,0.013l13.284,3.428l50.784,10.795l43.337,11.018l20.032,5.832
			c0.075,0.021,0.146,0.049,0.219,0.078l51.481,21.922l26.061,9.838l22.564,0.462l33.469-4.735l37.4-8.49l99.191-22.263
			l30.756-5.955l46.133-26.229c0.03-0.018,0.062-0.034,0.094-0.05l26.691-13.324c0.108-0.053,0.221-0.096,0.335-0.131l59.798-17.1
			c0.066-0.019,0.135-0.034,0.202-0.045l16.513-2.862c0.063-0.012,0.129-0.02,0.191-0.023l80.354-5.813l83.479-5.175l21.611-2.272
			l92.555-11.215l77.134-10.375l124.666-15.172l127.755-13.936l125.517-13.244l148.462-14.063l131.869-14.258l4.041-0.47
			l2.729-0.401l24.206-3.004l118.596-12.909l128.027-12.341l147.575-19.988l176.115-19.144l117.039-13.905l59.315-6.524
			l50.279-6.498c0.047-0.007,0.094-0.012,0.141-0.015l39.735-2.204C4112.499,1410.274,4112.535,1410.272,4112.568,1410.272z"/>
	</g>
</g>
<g id="LWPOLYLINE_566_">
	<g>
		<path fill="#7F9FFF" d="M4096,1419.435c0.018,0,0.034,0,0.051,0.002l40.402,1.093c0.238,0.007,0.474,0.057,0.693,0.148
			l28.822,11.958l74.802,28.153l68.354,27.937c1.008,0.411,1.496,1.573,1.09,2.597c-0.408,1.022-1.557,1.517-2.564,1.104
			l-68.303-27.918l-74.813-28.155l-28.548-11.844l-39.914-1.08l-71.265,7.376l-0.979,0.933c-0.307,0.294-0.701,0.479-1.122,0.529
			l-3.771,0.445l-177.838,20.744l-14.7,2.99c-0.063,0.014-0.127,0.021-0.193,0.03l-138.309,14.18
			c-0.034,0.004-0.068,0.007-0.104,0.008l-22.309,1.075l-9.199,2.663c-0.11,0.031-0.222,0.052-0.335,0.064l-257.745,27.063
			l-28.768,3.519l-79.373,7.821l-67.58,7.632l-100.228,10.193l-8.412,1.174l-12.326,1.417l-125.709,12.799l-10.067,1.29
			l-12.578,1.033l-42.057,4.684l-181.491,20.955l-27.343,2.038l-111.218,12.207l-15.177,1.402l-152.689,18.984l-5.715,1.225
			c-0.115,0.024-0.232,0.037-0.351,0.042l-6.586,0.193l-26.359,3.821c-0.058,0.009-0.116,0.015-0.176,0.018l-150.485,8.027
			l-6.043,0.925l-81.373,26.907l-61.148,32.249c-0.182,0.096-0.376,0.161-0.578,0.197l-27.559,4.762l-5.034,1.422
			c-0.034,0.01-0.067,0.02-0.102,0.026l-136.461,30.861l-24.225,6.078c-0.153,0.04-0.313,0.06-0.471,0.061l-22.442,0.032
			c-0.128,0.001-0.275-0.015-0.41-0.043l-19.27-4.138c-0.104-0.021-0.204-0.053-0.303-0.091l-85.264-33.396l-108.582-26.316
			l-76.71,16.646l-23.263,3.94l-11.531,1.782c-0.067,0.012-0.134,0.02-0.2,0.021l-3.099,0.181c-0.213,0.013-0.428-0.011-0.634-0.069
			l-18.675-5.18l-30.356-8.522l-196.521-38.003l-21.043-4.062c-0.056-0.013-0.11-0.025-0.167-0.041l-3.229-0.924l-8.068-1.414
			l-301.351-16.894l-5.665-0.58l-190.835,76.005l-25.565,11.292l-39.85,15.67l-18.226,6.41l-12.243,5.489l-49.36,19.978
			l-32.269,13.271l-23.011,9.538l-43.045,19.462l-9.72,5.642l-11.027,9.67l-31.254,63.555l-3.817,7.446
			c-0.027,0.052-0.058,0.104-0.09,0.154l-4.397,6.97l-27.246,51.931l-5.054,8.773l-1.467,3.281
			c-0.026,0.059-0.057,0.116-0.089,0.174l-1.863,3.272l-47.899,92.409l-4.971,9.892l-2.028,4.227l-48.368,100.306
			c-0.018,0.037-0.035,0.072-0.055,0.107l-9.421,16.888c-0.535,0.959-1.737,1.3-2.684,0.758c-0.947-0.541-1.282-1.759-0.749-2.718
			l9.395-16.84l48.339-100.248l2.042-4.256l4.999-9.947l47.948-92.503l1.852-3.254l1.47-3.288c0.029-0.063,0.061-0.125,0.094-0.184
			l5.066-8.792l27.243-51.928c0.025-0.046,0.051-0.091,0.079-0.136l4.396-6.969l3.763-7.334l31.414-63.884
			c0.116-0.235,0.275-0.446,0.474-0.619l11.472-10.059c0.097-0.083,0.2-0.159,0.311-0.223l9.969-5.787
			c0.06-0.032,0.117-0.063,0.177-0.09l43.192-19.527l23.072-9.563l32.284-13.277l49.305-19.953l12.25-5.494
			c0.05-0.021,0.101-0.043,0.152-0.061l18.235-6.413l39.709-15.615l25.558-11.288l191.345-76.211
			c0.292-0.113,0.605-0.158,0.919-0.126l6.051,0.621l301.373,16.892c0.075,0.004,0.151,0.013,0.228,0.024l8.28,1.452
			c0.067,0.011,0.135,0.026,0.199,0.046l3.25,0.929l20.959,4.047l196.595,38.018c0.054,0.012,0.105,0.023,0.156,0.037l30.434,8.544
			l18.357,5.093l2.675-0.156l3.574-0.58l7.87-1.187l23.14-3.919l77.061-16.725c0.287-0.062,0.585-0.059,0.871,0.011l109.146,26.453
			c0.086,0.021,0.17,0.048,0.252,0.082l85.239,33.384l18.911,4.06l21.994-0.03l24.037-6.031l136.457-30.862l5.08-1.436
			c0.064-0.021,0.132-0.034,0.197-0.046l27.355-4.727l61.021-32.18c0.097-0.052,0.195-0.095,0.298-0.129l81.683-27.01
			c0.103-0.033,0.209-0.06,0.315-0.075l6.303-0.966c0.063-0.01,0.127-0.017,0.191-0.02l150.49-8.027l26.382-3.826
			c0.074-0.012,0.147-0.018,0.223-0.02l6.518-0.189l5.629-1.205c0.056-0.015,0.11-0.022,0.167-0.029l152.833-19.002l15.204-1.405
			l111.253-12.21l27.329-2.037l181.422-20.949l42.122-4.688l12.545-1.029l10.031-1.287l125.731-12.8l12.255-1.411l8.438-1.175
			l100.278-10.199l67.586-7.633l79.354-7.82l28.756-3.517l257.608-27.048l9.246-2.676c0.146-0.042,0.3-0.069,0.453-0.076
			l22.473-1.083l138.167-14.167l14.691-2.987c0.054-0.012,0.107-0.021,0.162-0.027l181.037-21.12l0.989-0.942
			c0.314-0.302,0.72-0.489,1.15-0.533l72.055-7.459C4095.866,1419.438,4095.934,1419.435,4096,1419.435z"/>
	</g>
</g>
<g id="LWPOLYLINE_569_">
	<g>
		<path fill="#7F9FFF" d="M1303.875,1670.062c0.052,0,0.104,0.002,0.155,0.005l31.102,2.5c0.076,0.006,0.152,0.017,0.228,0.032
			l37.483,7.531c0.04,0.007,0.08,0.018,0.12,0.028l40.988,10.952c0.039,0.011,0.079,0.021,0.118,0.037l49.58,16.685
			c0.04,0.014,0.078,0.027,0.116,0.043l85.566,34.979l47.331,20.027l75.395,33.549c0.995,0.444,1.448,1.621,1.011,2.63
			c-0.438,1.01-1.6,1.468-2.595,1.023l-75.361-33.535l-47.276-20.003l-85.484-34.946l-49.463-16.646l-40.871-10.921l-37.31-7.496
			l-30.876-2.48l-32.295,1.064l-54.355,6.317l-47.142,14.015l-95.459,36.439l-118.718,43.718l-69.822,31.225l-51.537,26.018
			l-62.171,46.618L501.82,2117.784l-42.072,46.353c-0.736,0.812-1.982,0.863-2.783,0.118c-0.802-0.746-0.854-2.008-0.117-2.82
			l42.146-46.434c0.048-0.056,0.103-0.107,0.156-0.155l270.652-238.438c0.04-0.035,0.08-0.066,0.122-0.099l62.375-46.77
			c0.093-0.068,0.189-0.13,0.293-0.183l51.773-26.135l69.965-31.29c0.041-0.02,0.082-0.036,0.124-0.052l118.758-43.731
			l95.506-36.457c0.047-0.02,0.094-0.034,0.141-0.047l47.374-14.085c0.108-0.032,0.219-0.055,0.33-0.067l54.604-6.346
			c0.055-0.008,0.107-0.012,0.161-0.013l32.485-1.071C1303.833,1670.062,1303.854,1670.062,1303.875,1670.062z"/>
	</g>
</g>
<g id="LWPOLYLINE_572_">
	<g>
		<path fill="#7F9FFF" d="M1303.872,1676.383c0.036,0,0.073,0.001,0.11,0.003l31.01,1.819c0.079,0.005,0.159,0.015,0.235,0.028
			l36.82,6.725c0.042,0.009,0.084,0.02,0.126,0.029l40.43,10.201c0.066,0.017,0.131,0.037,0.194,0.061l48.938,17.921l210.242,83.228
			l35.863,13.72l319.739,126.816l46.625,18.816l20.667,6.043l24.366,3.854l21.778,3.731l46.611,5.545l143.965,15.577l157.783,15.233
			l137.698,15.092l93.193,10.025l195.032,21.105l97.897,12.406l50.856,6.878c0.065,0.009,0.131,0.021,0.195,0.037l73.088,17.612
			c0.055,0.015,0.106,0.027,0.159,0.045l36.41,12.117c0.049,0.017,0.099,0.035,0.146,0.057l61.679,26.229
			c0.051,0.022,0.101,0.045,0.148,0.07l32.497,17.153c0.036,0.019,0.071,0.038,0.104,0.06l74.455,45.357l54.017,36.3l58.634,40.315
			l81.631,48.184l26.139,13.237l41.5,17.702l30.724,11.645l39.419,10.467l31.743,5.695l19.807,2.413l84.841,6.021l63.805,3.019
			l33.156,1.528l58.593,0.681l69.272-0.188c0.06-0.001,0.119,0.003,0.178,0.008l77.088,6.873l223.471,7.317l90.109,1.983
			l76.941,1.427l170.38,4.336l66.981,2.81l15.074,1.314c1.084,0.097,1.888,1.063,1.793,2.161s-1.049,1.911-2.131,1.814
			l-14.987-1.312l-66.862-2.802l-170.334-4.333l-76.935-1.427l-90.138-1.985l-223.547-7.32c-0.035,0-0.071-0.002-0.108-0.005
			l-77.052-6.87l-69.212,0.188l-58.688-0.683l-33.225-1.53l-63.854-3.021l-84.982-6.033l-19.956-2.427
			c-0.036-0.005-0.073-0.011-0.108-0.019l-31.881-5.722c-0.053-0.01-0.104-0.021-0.156-0.035l-39.597-10.512
			c-0.063-0.017-0.129-0.038-0.19-0.06l-30.888-11.711l-41.633-17.756c-0.039-0.017-0.078-0.035-0.116-0.054l-26.246-13.292
			c-0.037-0.02-0.074-0.04-0.111-0.061l-81.757-48.259c-0.039-0.021-0.077-0.047-0.114-0.071l-58.666-40.338l-53.925-36.241
			l-74.333-45.281l-32.365-17.084l-61.531-26.167l-36.258-12.066l-72.912-17.569l-50.74-6.864l-97.846-12.4l-194.996-21.103
			l-93.196-10.024l-137.677-15.091l-157.779-15.23l-144.01-15.582l-46.678-5.554c-0.033-0.005-0.065-0.009-0.099-0.015
			l-21.806-3.735l-24.466-3.869c-0.082-0.013-0.163-0.031-0.243-0.055l-20.875-6.104c-0.061-0.019-0.121-0.039-0.183-0.063
			l-46.706-18.85l-319.706-126.804l-35.862-13.718l-210.217-83.22l-48.799-17.87l-40.264-10.16l-36.642-6.691l-30.797-1.809
			l-31.528,1.238l-53.771,6.254l-46.087,13.123l-96.659,35.295l-61.475,23.854l-51.239,19.641l-33.049,12.26l-42.145,19.253
			l-63.827,39.965l-46.64,35.308L512.41,2129.08l-42.877,37.573l-46.06,48.576c-0.755,0.795-2,0.82-2.787,0.058
			c-0.783-0.765-0.81-2.027-0.056-2.821l46.124-48.645c0.042-0.045,0.086-0.086,0.132-0.127l42.914-37.604l265.052-242.547
			c0.046-0.041,0.093-0.082,0.141-0.118l46.786-35.419c0.047-0.035,0.095-0.068,0.145-0.099l64.008-40.08
			c0.073-0.044,0.148-0.086,0.228-0.121l42.319-19.336c0.046-0.021,0.09-0.038,0.134-0.054l33.104-12.278l51.21-19.631
			l61.504-23.863l96.763-35.335c0.043-0.017,0.089-0.031,0.135-0.043l46.309-13.188c0.103-0.029,0.205-0.05,0.31-0.061l54.002-6.28
			c0.049-0.006,0.099-0.009,0.147-0.012l31.698-1.243C1303.819,1676.383,1303.845,1676.383,1303.872,1676.383z"/>
	</g>
</g>
<g id="LWPOLYLINE_573_">
	<g>
		<path fill="#7F9FFF" d="M1304.396,1687.071c0.031,0,0.065,0,0.101,0.002l31.585,1.588c0.084,0.004,0.167,0.014,0.249,0.027
			l36.854,6.687l37.668,7.149c0.065,0.013,0.131,0.028,0.195,0.048l49.168,14.721c0.052,0.017,0.104,0.035,0.153,0.055
			l209.814,82.235l96.242,37.524l259.55,103.909l46.811,18.895l21.14,6.184l24.615,3.89l21.854,3.744l46.753,5.553l144.002,15.589
			l157.786,15.235l137.684,15.081l93.184,10.039l194.998,21.091l97.825,12.407l50.631,6.842c0.065,0.009,0.13,0.021,0.194,0.037
			l72.688,17.518c0.054,0.012,0.106,0.028,0.159,0.045l36.076,12.005c0.051,0.018,0.099,0.035,0.146,0.056l61.354,26.086
			c0.05,0.022,0.1,0.045,0.146,0.071l32.218,17.004c0.035,0.02,0.07,0.04,0.105,0.061l74.261,45.237l53.911,36.232l58.73,40.376
			l81.896,48.335l26.378,13.378l41.71,17.792l31.021,11.755l39.813,10.56l32.019,5.761l20.056,2.435l84.993,6.031l63.857,3.023
			l33.229,1.526l58.711,0.685l69.089-0.186c0.059,0,0.118,0.003,0.178,0.008l77.03,6.861l223.594,7.33l90.141,1.978l76.947,1.438
			l170.328,4.327l66.842,2.798l15.289,1.346c1.084,0.095,1.887,1.062,1.793,2.158c-0.095,1.098-1.049,1.91-2.133,1.814
			l-15.199-1.335l-66.723-2.792l-170.283-4.326l-76.939-1.439l-90.17-1.979l-223.666-7.333c-0.037-0.002-0.072-0.004-0.109-0.007
			l-76.998-6.859l-69.027,0.187l-58.806-0.688l-33.299-1.53l-63.906-3.025l-85.136-6.043l-20.206-2.451
			c-0.037-0.004-0.074-0.01-0.11-0.015l-32.153-5.786c-0.052-0.009-0.104-0.02-0.153-0.033l-39.984-10.605
			c-0.064-0.018-0.129-0.038-0.191-0.063l-31.19-11.82l-41.842-17.846c-0.039-0.016-0.079-0.034-0.116-0.055l-26.494-13.437
			c-0.037-0.021-0.074-0.039-0.109-0.061l-82.009-48.401c-0.039-0.024-0.077-0.049-0.114-0.074l-58.771-40.403l-53.818-36.174
			l-74.134-45.157l-32.094-16.939l-61.212-26.026l-35.913-11.951l-72.519-17.477l-50.516-6.826l-97.773-12.401l-194.961-21.086
			l-93.188-10.04l-137.661-15.079l-157.784-15.234l-144.045-15.591l-46.822-5.563c-0.032-0.004-0.064-0.009-0.099-0.015
			l-21.881-3.748l-24.71-3.904c-0.083-0.013-0.164-0.032-0.244-0.056l-21.354-6.244c-0.063-0.021-0.123-0.039-0.184-0.064
			l-46.895-18.929l-259.528-103.899l-96.229-37.521l-209.743-82.207l-48.993-14.671l-37.555-7.128l-36.715-6.658l-31.377-1.579
			l-29.571,0.807l-52.918,7.086l-45.563,10.989l-94.062,34.972l-60.209,23.39l-25.628,12.111l-39.471,22.688l-48.465,35.854
			l-31.504,30.623l-395.197,350.743c-0.03,0.026-0.06,0.053-0.091,0.076l-30.385,23.85c-0.056,0.044-0.113,0.085-0.172,0.121
			l-35.708,22.34c-0.037,0.023-0.076,0.046-0.115,0.066l-27.021,14.408c-0.964,0.514-2.153,0.141-2.66-0.834
			s-0.138-2.183,0.825-2.695l26.964-14.381l35.557-22.242l30.257-23.752l395.09-350.637l31.533-30.653
			c0.063-0.062,0.131-0.119,0.203-0.171l48.663-36.002c0.062-0.045,0.125-0.084,0.189-0.123l39.634-22.781
			c0.046-0.027,0.092-0.051,0.141-0.074l25.766-12.178c0.042-0.021,0.085-0.037,0.127-0.053l60.3-23.427l94.198-35.021
			c0.073-0.026,0.146-0.049,0.223-0.068l45.773-11.04c0.065-0.016,0.132-0.028,0.198-0.039l53.121-7.11
			c0.067-0.011,0.137-0.016,0.205-0.018l29.741-0.813C1304.362,1687.071,1304.379,1687.071,1304.396,1687.071z"/>
	</g>
</g>
<g id="LWPOLYLINE_578_">
	<g>
		<path fill="#7F9FFF" d="M1318.548,1694.137c0.071,0,0.144,0.003,0.214,0.011l52.811,5.811c0.072,0.008,0.146,0.02,0.217,0.035
			l39.831,9.01l45.104,11.401c0.078,0.021,0.157,0.046,0.233,0.075l90.086,35.362l79.468,31.828l191.279,76.191
			c1.014,0.402,1.512,1.561,1.112,2.587c-0.397,1.025-1.542,1.531-2.554,1.127l-191.283-76.191l-79.458-31.826l-89.958-35.313
			l-44.936-11.361l-39.677-8.973l-52.595-5.784l-59.497,0.031l-35.437,5.247l-46.506,11.48l-35.686,11.761l-59.15,18.303
			l-31.79,9.702l-30.792,8.654l-28.494,10.952l-58.313,23.732l-41.142,18.878l-37.311,19.897l-27.833,17.666l-46.228,35.981
			l-264.794,241.625l-43.635,38.124l-58.734,61.465c-0.756,0.791-2.004,0.812-2.786,0.045c-0.782-0.766-0.802-2.03-0.045-2.821
			l58.797-61.528c0.041-0.043,0.084-0.085,0.128-0.123l43.671-38.154L777.686,1887.4c0.038-0.034,0.077-0.068,0.118-0.1
			l46.364-36.09c0.049-0.04,0.101-0.077,0.154-0.11l27.975-17.756c0.042-0.026,0.085-0.051,0.128-0.074l37.425-19.96
			c0.035-0.019,0.069-0.035,0.105-0.053l41.274-18.938l58.427-23.78l28.615-10.999c0.057-0.021,0.112-0.042,0.172-0.056
			l30.838-8.668l31.74-9.688l59.109-18.288l35.723-11.774c0.047-0.017,0.096-0.028,0.144-0.041l46.667-11.522
			c0.06-0.015,0.121-0.024,0.181-0.037l35.672-5.278c0.095-0.014,0.189-0.021,0.284-0.021L1318.548,1694.137z"/>
	</g>
</g>
<g id="LWPOLYLINE_594_">
	<g>
		<path fill="#7F9FFF" d="M952.629,1600.094c0.038,0,0.074,0.002,0.111,0.005l234.324,13.442l80.389,5.445
			c0.296,0.021,0.584,0.107,0.843,0.256l8.162,4.701l17.905-0.706c0.163-0.006,0.322,0.008,0.479,0.041l154.145,32.664l41.901,8.468
			l50.898,9.129l35.256-1.269l74.795-17.65c0.297-0.07,0.605-0.069,0.902,0.002l109.405,26.196c0.065,0.017,0.133,0.036,0.196,0.059
			l11.823,4.193l85.226,33.531l39.984-1.656l151.207-34.472c1.061-0.241,2.115,0.435,2.354,1.51
			c0.239,1.073-0.429,2.143-1.489,2.383l-151.381,34.511c-0.116,0.026-0.234,0.042-0.354,0.047l-40.566,1.684
			c-0.275,0.011-0.544-0.033-0.797-0.135l-85.547-33.659l-11.663-4.135l-108.858-26.065l-74.531,17.59
			c-0.123,0.03-0.25,0.047-0.377,0.051l-35.656,1.281c-0.137,0.007-0.275-0.005-0.411-0.028l-51.146-9.173l-41.961-8.479
			l-153.925-32.618l-18.226,0.719c-0.364,0.015-0.729-0.076-1.051-0.259l-8.257-4.758l-79.919-5.413l-233.896-13.418l-13.895,5.218
			L768.76,1679.34l-8.104,2.953l-24.569,10.445l-54.796,21.146l-16.117,5.973l-158.074,68.811l-13.494,18.999l-32.288,63.188
			l-37.708,71.279l-20.364,39.229l-31.241,58.145l-3.998,8.307l-3.366,6.763L310.32,2164.79c-0.021,0.042-0.044,0.084-0.069,0.125
			l-16.642,28.467c-0.084,0.146-0.189,0.28-0.308,0.399l-85.93,86.301l-25.194,27.862c-0.734,0.813-1.98,0.867-2.783,0.124
			c-0.802-0.744-0.857-2.007-0.123-2.819l25.26-27.931l85.817-86.191l16.478-28.185l54.292-110.161l3.688-7.416l3.697-7.69
			l31.268-58.198l20.359-39.218l37.702-71.269l32.342-63.291c0.044-0.087,0.095-0.17,0.15-0.25l13.896-19.566
			c0.208-0.293,0.492-0.522,0.821-0.667l158.627-69.05c0.033-0.015,0.066-0.028,0.101-0.041l16.144-5.98l54.711-21.112
			l24.554-10.439c0.032-0.015,0.063-0.025,0.097-0.038l8.079-2.942l170.255-70.009l14.337-5.384
			C952.165,1600.139,952.396,1600.095,952.629,1600.094z"/>
	</g>
</g>
<g id="LWPOLYLINE_625_">
	<g>
		<path fill="#7F9FFF" d="M1531.483,1722.092c0.015,0,0.029,0,0.045,0l14.334,0.328c0.209,0.005,0.417,0.044,0.614,0.115
			l47.021,16.944l160.677,62.224l298.695,117.929c0.469,0.187,0.851,0.545,1.065,1.004l6.379,13.616
			c0.14,0.296,0.203,0.625,0.188,0.951l-0.354,7.375c-0.053,1.099-0.979,1.948-2.063,1.895c-1.087-0.054-1.925-0.987-1.872-2.09
			l0.329-6.873l-5.833-12.448l-297.954-117.638l-160.622-62.2l-46.678-16.821l-14.018-0.321c-1.089-0.026-1.95-0.938-1.926-2.04
			C1529.538,1722.957,1530.416,1722.092,1531.483,1722.092z"/>
	</g>
</g>
<g id="LWPOLYLINE_660_">
	<g>
		<path fill="#7F9FFF" d="M1541.646,1673.545c0.588,0,1.168,0.263,1.556,0.77l4.464,5.802l30.447,39.478l38.846,21.396
			l55.708,21.706l85.698,33.392l146.947,57.446l191.513,74.443l253.422-45.146c0.136-0.022,0.272-0.033,0.411-0.027l119.21,4.271
			l151.127,8.452l129.118,8.141l88.625,5.766l80.397,3.643l83.426-4.909l146.822-16.324l132.802-14.953l33.553-2.849l137.03-15.406
			l22.993-3.055l36.161-4.011l190.502-22.883l16.854-3.618c1.064-0.229,2.11,0.459,2.335,1.538c0.227,1.077-0.455,2.137-1.519,2.365
			l-16.941,3.637c-0.058,0.014-0.117,0.022-0.176,0.029l-190.61,22.896l-36.136,4.009l-22.99,3.055l-137.123,15.415l-33.552,2.852
			l-132.75,14.946l-146.877,16.332c-0.034,0.004-0.065,0.006-0.101,0.008l-83.574,4.917c-0.067,0.004-0.135,0.005-0.202,0.001
			l-80.541-3.648l-88.656-5.766l-129.101-8.141l-151.075-8.447l-118.965-4.268l-253.757,45.206
			c-0.351,0.063-0.714,0.028-1.045-0.101l-192.025-74.643l-146.95-57.447l-141.526-55.146c-0.08-0.03-0.158-0.066-0.232-0.107
			l-39.317-21.658c-0.237-0.131-0.444-0.31-0.61-0.524l-35.166-45.61c-0.668-0.868-0.516-2.122,0.343-2.799
			C1540.798,1673.684,1541.225,1673.546,1541.646,1673.545z"/>
	</g>
</g>
<g id="LWPOLYLINE_674_">
	<g>
		<path fill="#7F9FFF" d="M1513.928,1770.415c0.25,0,0.504,0.049,0.75,0.152c1.006,0.418,1.485,1.585,1.07,2.604l-36.873,90.61
			l-36.817,97.563c-0.112,0.299-0.296,0.569-0.534,0.781l-22.083,19.801c-0.133,0.121-0.28,0.223-0.44,0.302l-36.191,17.888
			l-140.537,67.249l-56.746,28.054l-64.443,33.769c-0.966,0.509-2.155,0.125-2.655-0.853c-0.5-0.979-0.122-2.183,0.845-2.69
			l64.485-33.791l56.81-28.086l140.537-67.248l35.928-17.759l21.52-19.297l36.664-97.155l36.892-90.656
			C1512.419,1770.88,1513.153,1770.415,1513.928,1770.415z"/>
	</g>
</g>
</svg>
