<?xml version="1.0" encoding="utf-8"?>
<!-- Generator: Adobe Illustrator 16.0.0, SVG Export Plug-In . SVG Version: 6.00 Build 0)  -->
<!DOCTYPE svg PUBLIC "-//W3C//DTD SVG 1.1//EN" "http://www.w3.org/Graphics/SVG/1.1/DTD/svg11.dtd">
<svg version="1.1" id="道路" xmlns="http://www.w3.org/2000/svg" xmlns:xlink="http://www.w3.org/1999/xlink" x="0px" y="0px"
	 width="4875.4px" height="2581.51px" viewBox="0 0 4875.4 2581.51" enable-background="new 0 0 4875.4 2581.51"
	 xml:space="preserve">
<g id="LWPOLYLINE_115_">
	<g>
		<path fill="#7F9FFF" d="M2839.734,1554.681c0.957,0,1.795,0.707,1.944,1.694l0.394,2.599c0.033,0.235,0.027,0.474-0.02,0.705
			l-3.376,16.521c-0.026,0.133-0.066,0.264-0.122,0.388l-5.563,13c-0.063,0.146-0.143,0.284-0.237,0.411l-6.842,9.152
			c-0.239,0.321-0.57,0.562-0.947,0.688l-12.146,4.101c-0.265,0.088-0.548,0.12-0.825,0.092l-10.063-1.057
			c-0.254-0.027-0.5-0.104-0.726-0.226l-13.317-7.208c-0.222-0.12-0.419-0.282-0.581-0.479l-12.305-14.87
			c-0.134-0.162-0.242-0.344-0.32-0.541l-4.633-11.748c-0.025-0.063-0.046-0.126-0.064-0.19l-0.656-2.322
			c-0.301-1.06,0.306-2.165,1.352-2.468c1.045-0.303,2.137,0.308,2.437,1.368l0.629,2.226l4.479,11.357l11.857,14.328l12.64,6.843
			l9.255,0.973l11.163-3.77l6.332-8.47l5.387-12.591l3.264-15.968l-0.338-2.244c-0.164-1.091,0.574-2.105,1.649-2.272
			C2839.536,1554.688,2839.635,1554.681,2839.734,1554.681z"/>
	</g>
</g>
<g id="LWPOLYLINE_124_">
	<g>
		<path fill="#7F9FFF" d="M2812.201,1600.051c0.986,0,1.838,0.748,1.955,1.767l9.683,84.112c0.036,0.315-0.002,0.634-0.11,0.93
			l-8.175,22.218l-12.727,33.46l-2.933,21.201l6.412,21.836l11.653,22.125l14.138,27.311c0.078,0.149,0.137,0.311,0.175,0.476
			l5.245,22.881c0.025,0.109,0.042,0.222,0.048,0.335l3.012,52.608c0.063,1.1-0.767,2.043-1.853,2.107
			c-1.084,0.063-2.02-0.777-2.081-1.877l-3.001-52.438l-5.15-22.468l-14.015-27.068l-11.74-22.289
			c-0.063-0.119-0.112-0.244-0.148-0.371l-6.593-22.447c-0.08-0.273-0.102-0.562-0.063-0.845l3.021-21.857
			c0.021-0.149,0.06-0.299,0.113-0.438l12.799-33.655l8.002-21.746l-9.629-83.637c-0.125-1.095,0.648-2.086,1.729-2.214
			C2812.047,1600.055,2812.125,1600.051,2812.201,1600.051z"/>
	</g>
</g>
<g id="LWPOLYLINE_287_">
	<g>
		<path fill="#7F9FFF" d="M2195.167,201.367c0.703,0,1.384,0.383,1.739,1.057l5.91,11.212l44.521,82.903l5.237,10.139l54.392,99.484
			l48.801,93.606l4.677,8.565l41.944,77.738c0.055,0.101,0.101,0.206,0.138,0.314l4.317,12.887c0.015,0.042,0.026,0.084,0.039,0.125
			l3.285,12.427l3.171,10.489l38.4,137.542c0.013,0.045,0.023,0.091,0.032,0.136l4.287,20.813l32.761,120.731
			c0.009,0.033,0.017,0.065,0.022,0.099l2.478,11.364l29.01,112.486l5.347,12.006c0.034,0.077,0.063,0.155,0.09,0.235l3.317,10.979
			c0.048,0.156,0.075,0.318,0.084,0.48l0.927,18.352l14.484,86.936c0.006,0.042,0.012,0.082,0.017,0.125l19.925,192.659
			l24.097,232.86l0.681,6.49l33.551,310.692c0.119,1.097-0.663,2.08-1.745,2.2c-1.075,0.119-2.054-0.67-2.171-1.766l-33.553-310.7
			l-0.681-6.5l-24.098-232.862l-19.918-192.597l-14.493-86.988c-0.012-0.076-0.021-0.153-0.024-0.23l-0.92-18.22l-3.21-10.621
			l-5.363-12.044c-0.046-0.102-0.083-0.208-0.111-0.314l-29.068-112.726l-2.482-11.389l-32.763-120.743
			c-0.011-0.041-0.021-0.082-0.029-0.123l-4.286-20.807l-38.37-137.431l-3.179-10.518l-3.288-12.431l-4.243-12.658l-41.858-77.58
			l-4.688-8.591l-48.802-93.607l-54.396-99.489l-5.243-10.152l-44.513-82.891l-5.918-11.225c-0.513-0.971-0.15-2.18,0.811-2.701
			C2194.536,201.443,2194.854,201.367,2195.167,201.367z"/>
	</g>
</g>
<g id="LWPOLYLINE_298_">
	<g>
		<path fill="#7F9FFF" d="M3106.297,1456.183c0.992,0,1.846,0.759,1.956,1.78c0.118,1.095-0.663,2.08-1.745,2.198l-147.99,16.335
			L2831.79,1489.8l-126.94,11.6c-1.086,0.097-2.041-0.713-2.139-1.811c-0.099-1.098,0.702-2.068,1.784-2.167l126.915-11.595
			l126.689-13.299l147.982-16.334C3106.154,1456.187,3106.227,1456.183,3106.297,1456.183z"/>
	</g>
</g>
<g id="LWPOLYLINE_299_">
	<g>
		<path fill="#7F9FFF" d="M2728.739,783.606c0.868,0,1.665,0.587,1.9,1.479l50.54,190.73c0.021,0.071,0.035,0.145,0.046,0.218
			l1.757,11.714c0.007,0.039,0.012,0.079,0.016,0.12l11.886,133.171l5.152,52.388l3.108,32.275l2.19,4.555
			c0.13,0.273,0.198,0.571,0.198,0.874v10.385l0.728,12.678l10.66,88.74l10.382,96.926l1.125,8.305
			c0.007,0.059,0.012,0.114,0.015,0.17l0.288,5.813l4.21,45.732l0.609,7.778l6.378,55.256l1.757,13.506
			c0.142,1.094-0.619,2.096-1.698,2.236c-1.078,0.143-2.065-0.628-2.208-1.72l-1.761-13.528l-6.389-55.358l-0.614-7.825
			l-4.214-45.791l-0.288-5.813l-1.12-8.278l-10.387-96.954l-10.664-88.775c-0.006-0.042-0.01-0.083-0.012-0.125l-0.733-12.799
			c-0.002-0.039-0.003-0.077-0.003-0.117v-9.98l-2.147-4.463c-0.102-0.213-0.167-0.443-0.189-0.68l-3.144-32.63l-5.152-52.401
			l-11.884-133.129l-1.73-11.543l-50.513-190.623c-0.282-1.064,0.341-2.159,1.392-2.443
			C2728.398,783.629,2728.569,783.606,2728.739,783.606z"/>
	</g>
</g>
<g id="LWPOLYLINE_335_">
	<g>
		<path fill="#7F9FFF" d="M2353.813,939.038c0.844,0,1.623,0.553,1.883,1.413l8.262,27.343l31.501,107.045l5.435,19.19l4.875,16.405
			c0.041,0.132,0.065,0.268,0.077,0.405l4.91,58.37l7.326,78.344c0.007,0.065,0.01,0.131,0.009,0.198l-0.316,67.912l-0.459,128.271
			l1.616,163.051l52.802,281.713c0.205,1.082-0.498,2.128-1.566,2.333c-1.069,0.206-2.1-0.505-2.303-1.588l-52.834-281.888
			c-0.021-0.116-0.033-0.233-0.035-0.352l-1.618-163.257l0.458-128.3l0.316-67.816l-7.32-78.264l-4.895-58.183l-4.825-16.229
			l-5.436-19.196l-31.491-107.012l-8.259-27.33c-0.317-1.053,0.268-2.168,1.309-2.491
			C2353.427,939.067,2353.622,939.038,2353.813,939.038z"/>
	</g>
</g>
<g id="LWPOLYLINE_445_">
	<g>
		<path fill="#7F9FFF" d="M3100.725,1398.568c1.086,0,1.967,0.888,1.971,1.988c0.004,1.103-0.874,1.997-1.962,2.001l-43.226,0.152
			l-104.949,14.641l-125.881,13.067l-128.034,13.787c-1.082,0.118-2.052-0.678-2.167-1.775c-0.115-1.095,0.669-2.077,1.75-2.193
			l128.042-13.788l125.819-13.059l105.014-14.65c0.086-0.012,0.174-0.019,0.262-0.02l43.355-0.15
			C3100.72,1398.568,3100.723,1398.568,3100.725,1398.568z"/>
	</g>
</g>
<g id="LWPOLYLINE_447_">
	<g>
		<path fill="#7F9FFF" d="M2506.165,1352.232c0.004,0,0.007,0,0.011,0c1.087,0.007,1.965,0.904,1.958,2.007l-0.604,108.083
			l3.936,128.321l0.173,5.218l62.211,298.512c0.225,1.079-0.457,2.137-1.521,2.365c-1.064,0.226-2.109-0.462-2.334-1.541
			l-62.247-298.683c-0.024-0.114-0.038-0.229-0.042-0.347l-0.178-5.397l-3.938-128.397l0.604-108.155
			C2504.201,1353.119,2505.083,1352.232,2506.165,1352.232z"/>
	</g>
</g>
<g id="LWPOLYLINE_450_">
	<g>
		<path fill="#7F9FFF" d="M2124.453,1421.694c0.053,0,0.104,0.003,0.156,0.007l86.768,7.047l102.84,5.888l101.271,7.3
			c1.084,0.077,1.901,1.032,1.823,2.132c-0.076,1.1-1.015,1.927-2.104,1.848l-101.24-7.299l-102.856-5.889l-86.569-7.03
			l-78.785,13.43c-0.105,0.02-0.211,0.027-0.316,0.027l-98.813,0.56c-0.004,0-0.008,0-0.012,0c-1.083,0-1.963-0.886-1.97-1.982
			c-0.007-1.101,0.871-2,1.959-2.006l98.655-0.56l78.87-13.442C2124.234,1421.705,2124.343,1421.694,2124.453,1421.694z"/>
	</g>
</g>
<g id="LWPOLYLINE_535_">
	<g>
		<path fill="#7F9FFF" d="M3224.23,1276.966c0.998,0,1.854,0.766,1.957,1.793c0.109,1.098-0.679,2.076-1.761,2.188l-25.621,2.639
			l-114.598,11.624l-140.435,8.521l-8.64,3.305l-15.093,4.92c-0.117,0.037-0.237,0.064-0.36,0.08l-104.473,13.118l-128.42,12.575
			l-124.045,11.725l-146.878,17.603c-1.079,0.13-2.061-0.651-2.188-1.747c-0.129-1.094,0.645-2.084,1.725-2.215l146.926-17.607
			l124.088-11.73l128.36-12.567l104.235-13.089l14.824-4.829l8.825-3.377c0.186-0.072,0.38-0.114,0.579-0.125l140.654-8.533
			l114.516-11.617l25.617-2.638C3224.096,1276.97,3224.164,1276.966,3224.23,1276.966z"/>
	</g>
</g>
<g id="LWPOLYLINE_553_">
	<g>
		<path fill="#7F9FFF" d="M4112.568,1410.272c0.08,0,0.158,0.006,0.233,0.015l30.507,3.662c0.118,0.014,0.234,0.04,0.35,0.076
			l26.951,8.445c0.047,0.016,0.094,0.031,0.14,0.05l174.233,69.503c1.012,0.404,1.508,1.563,1.11,2.589
			c-0.399,1.023-1.543,1.529-2.556,1.124l-174.16-69.474l-26.711-8.371l-30.158-3.619l-39.493,2.19l-50.246,6.492l-59.336,6.526
			l-117.04,13.906l-176.084,19.141l-147.6,19.99l-128.076,12.347l-118.542,12.904l-24.134,2.993l-2.743,0.402l-4.114,0.479
			l-131.912,14.263l-148.467,14.063l-125.488,13.239l-127.725,13.936l-124.617,15.163l-77.135,10.375l-92.61,11.223l-21.726,2.284
			l-83.542,5.18l-80.235,5.806l-16.313,2.824l-59.522,17.024l-26.483,13.219l-46.365,26.362c-0.186,0.104-0.386,0.18-0.595,0.221
			l-31.015,6.004l-99.131,22.25l-37.478,8.508c-0.052,0.012-0.104,0.021-0.158,0.029l-33.703,4.768
			c-0.104,0.015-0.205,0.021-0.313,0.019l-23.054-0.472c-0.222-0.004-0.44-0.047-0.648-0.125l-26.448-9.986l-51.45-21.905
			l-19.854-5.78l-43.197-10.982l-50.791-10.798l-12.906-3.328l-76.104,17.512c-0.103,0.024-0.207,0.039-0.312,0.046l-22.149,1.422
			c-0.276,0.019-0.549-0.022-0.808-0.119l-14.106-5.28l-78.464-13.078l-174.159-36.159l-34.473-5.506l-61.76-0.995l-240.163-12.457
			l-63.459,25.979l-119.116,49.128l-87.201,35.901l-15.848,5.996l-79.963,35.461c-0.996,0.441-2.158-0.019-2.596-1.027
			c-0.435-1.011,0.019-2.187,1.016-2.629l80.012-35.483c0.033-0.017,0.066-0.029,0.102-0.042l15.847-5.995l87.146-35.878
			l119.12-49.13l63.868-26.147c0.266-0.109,0.553-0.156,0.839-0.145l240.528,12.477l61.827,0.997
			c0.092,0.001,0.185,0.01,0.275,0.023l34.701,5.544l174.172,36.16l78.574,13.097c0.125,0.02,0.246,0.052,0.362,0.097l13.893,5.199
			l21.574-1.385l76.415-17.583c0.304-0.07,0.621-0.066,0.923,0.013l13.284,3.428l50.784,10.795l43.337,11.018l20.032,5.832
			c0.075,0.021,0.146,0.049,0.219,0.078l51.481,21.922l26.061,9.838l22.564,0.462l33.469-4.735l37.4-8.49l99.191-22.263
			l30.756-5.955l46.133-26.229c0.03-0.018,0.062-0.034,0.094-0.05l26.691-13.324c0.108-0.053,0.221-0.096,0.335-0.131l59.798-17.1
			c0.066-0.019,0.135-0.034,0.202-0.045l16.513-2.862c0.063-0.012,0.129-0.02,0.191-0.023l80.354-5.813l83.479-5.175l21.611-2.272
			l92.555-11.215l77.134-10.375l124.666-15.172l127.755-13.936l125.517-13.244l148.462-14.063l131.869-14.258l4.041-0.47
			l2.729-0.401l24.206-3.004l118.596-12.909l128.027-12.341l147.575-19.988l176.115-19.144l117.039-13.905l59.315-6.524
			l50.279-6.498c0.047-0.007,0.094-0.012,0.141-0.015l39.735-2.204C4112.499,1410.274,4112.535,1410.272,4112.568,1410.272z"/>
	</g>
</g>
<g id="LWPOLYLINE_566_">
	<g>
		<path fill="#7F9FFF" d="M4096,1419.435c0.018,0,0.034,0,0.051,0.002l40.402,1.093c0.238,0.007,0.474,0.057,0.693,0.148
			l28.822,11.958l74.802,28.153l68.354,27.937c1.008,0.411,1.496,1.573,1.09,2.597c-0.408,1.022-1.557,1.517-2.564,1.104
			l-68.303-27.918l-74.813-28.155l-28.548-11.844l-39.914-1.08l-71.265,7.376l-0.979,0.933c-0.307,0.294-0.701,0.479-1.122,0.529
			l-3.771,0.445l-177.838,20.744l-14.7,2.99c-0.063,0.014-0.127,0.021-0.193,0.03l-138.309,14.18
			c-0.034,0.004-0.068,0.007-0.104,0.008l-22.309,1.075l-9.199,2.663c-0.11,0.031-0.222,0.052-0.335,0.064l-257.745,27.063
			l-28.768,3.519l-79.373,7.821l-67.58,7.632l-100.228,10.193l-8.412,1.174l-12.326,1.417l-125.709,12.799l-10.067,1.29
			l-12.578,1.033l-42.057,4.684l-181.491,20.955l-27.343,2.038l-111.218,12.207l-15.177,1.402l-152.689,18.984l-5.715,1.225
			c-0.115,0.024-0.232,0.037-0.351,0.042l-6.586,0.193l-26.359,3.821c-0.058,0.009-0.116,0.015-0.176,0.018l-150.485,8.027
			l-6.043,0.925l-81.373,26.907l-61.148,32.249c-0.182,0.096-0.376,0.161-0.578,0.197l-27.559,4.762l-5.034,1.422
			c-0.034,0.01-0.067,0.02-0.102,0.026l-136.461,30.861l-24.225,6.078c-0.153,0.04-0.313,0.06-0.471,0.061l-22.442,0.032
			c-0.128,0.001-0.275-0.015-0.41-0.043l-19.27-4.138c-0.104-0.021-0.204-0.053-0.303-0.091l-85.264-33.396l-108.582-26.316
			l-76.71,16.646l-23.263,3.94l-11.531,1.782c-0.067,0.012-0.134,0.02-0.2,0.021l-3.099,0.181c-0.213,0.013-0.428-0.011-0.634-0.069
			l-18.675-5.18l-30.356-8.522l-196.521-38.003l-21.043-4.062c-0.056-0.013-0.11-0.025-0.167-0.041l-3.229-0.924l-8.068-1.414
			l-301.351-16.894l-5.665-0.58l-190.835,76.005l-25.565,11.292l-39.85,15.67l-18.226,6.41l-12.243,5.489l-49.36,19.978
			l-32.269,13.271l-23.011,9.538l-43.045,19.462l-9.72,5.642l-11.027,9.67l-31.254,63.555l-3.817,7.446
			c-0.027,0.052-0.058,0.104-0.09,0.154l-4.397,6.97l-27.246,51.931l-5.054,8.773l-1.467,3.281
			c-0.026,0.059-0.057,0.116-0.089,0.174l-1.863,3.272l-47.899,92.409l-4.971,9.892l-2.028,4.227l-48.368,100.306
			c-0.018,0.037-0.035,0.072-0.055,0.107l-9.421,16.888c-0.535,0.959-1.737,1.3-2.684,0.758c-0.947-0.541-1.282-1.759-0.749-2.718
			l9.395-16.84l48.339-100.248l2.042-4.256l4.999-9.947l47.948-92.503l1.852-3.254l1.47-3.288c0.029-0.063,0.061-0.125,0.094-0.184
			l5.066-8.792l27.243-51.928c0.025-0.046,0.051-0.091,0.079-0.136l4.396-6.969l3.763-7.334l31.414-63.884
			c0.116-0.235,0.275-0.446,0.474-0.619l11.472-10.059c0.097-0.083,0.2-0.159,0.311-0.223l9.969-5.787
			c0.06-0.032,0.117-0.063,0.177-0.09l43.192-19.527l23.072-9.563l32.284-13.277l49.305-19.953l12.25-5.494
			c0.05-0.021,0.101-0.043,0.152-0.061l18.235-6.413l39.709-15.615l25.558-11.288l191.345-76.211
			c0.292-0.113,0.605-0.158,0.919-0.126l6.051,0.621l301.373,16.892c0.075,0.004,0.151,0.013,0.228,0.024l8.28,1.452
			c0.067,0.011,0.135,0.026,0.199,0.046l3.25,0.929l20.959,4.047l196.595,38.018c0.054,0.012,0.105,0.023,0.156,0.037l30.434,8.544
			l18.357,5.093l2.675-0.156l3.574-0.58l7.87-1.187l23.14-3.919l77.061-16.725c0.287-0.062,0.585-0.059,0.871,0.011l109.146,26.453
			c0.086,0.021,0.17,0.048,0.252,0.082l85.239,33.384l18.911,4.06l21.994-0.03l24.037-6.031l136.457-30.862l5.08-1.436
			c0.064-0.021,0.132-0.034,0.197-0.046l27.355-4.727l61.021-32.18c0.097-0.052,0.195-0.095,0.298-0.129l81.683-27.01
			c0.103-0.033,0.209-0.06,0.315-0.075l6.303-0.966c0.063-0.01,0.127-0.017,0.191-0.02l150.49-8.027l26.382-3.826
			c0.074-0.012,0.147-0.018,0.223-0.02l6.518-0.189l5.629-1.205c0.056-0.015,0.11-0.022,0.167-0.029l152.833-19.002l15.204-1.405
			l111.253-12.21l27.329-2.037l181.422-20.949l42.122-4.688l12.545-1.029l10.031-1.287l125.731-12.8l12.255-1.411l8.438-1.175
			l100.278-10.199l67.586-7.633l79.354-7.82l28.756-3.517l257.608-27.048l9.246-2.676c0.146-0.042,0.3-0.069,0.453-0.076
			l22.473-1.083l138.167-14.167l14.691-2.987c0.054-0.012,0.107-0.021,0.162-0.027l181.037-21.12l0.989-0.942
			c0.314-0.302,0.72-0.489,1.15-0.533l72.055-7.459C4095.866,1419.438,4095.934,1419.435,4096,1419.435z"/>
	</g>
</g>
<g id="LWPOLYLINE_584_">
	<g>
		<path fill="#7F9FFF" d="M2665.316,1122.589c0.93,0,1.757,0.668,1.934,1.626l1.67,9.019c0.011,0.058,0.02,0.116,0.025,0.176
			l1.926,20.224l16.382,172.989l1.296,8.825c0.006,0.042,0.011,0.085,0.014,0.128l0.767,9.315l11.063,97.101l6.238,57.199
			l6.622,65.711l0.771,5.006c0.168,1.09-0.566,2.109-1.643,2.278c-1.076,0.173-2.083-0.575-2.25-1.663l-0.779-5.059
			c-0.006-0.035-0.011-0.068-0.014-0.104l-6.625-65.749l-6.235-57.176l-11.067-97.15l-0.769-9.315l-1.292-8.813
			c-0.006-0.035-0.01-0.069-0.013-0.104l-16.388-173.04l-1.918-20.133l-1.653-8.929c-0.2-1.084,0.504-2.126,1.573-2.329
			C2665.073,1122.601,2665.195,1122.589,2665.316,1122.589z"/>
	</g>
</g>
<g id="LWPOLYLINE_662_">
	<g>
		<path fill="#7F9FFF" d="M2712.079,1568.222c0.995,0,1.851,0.762,1.957,1.784l1.58,14.859l36.318,320.432l1.864,7.395
			c0.27,1.066-0.367,2.152-1.423,2.426c-1.052,0.272-2.126-0.372-2.395-1.44l-1.897-7.522c-0.021-0.088-0.039-0.177-0.049-0.266
			l-36.334-320.581l-1.583-14.881c-0.115-1.096,0.67-2.077,1.752-2.194C2711.939,1568.225,2712.01,1568.222,2712.079,1568.222z"/>
	</g>
</g>
<g id="LWPOLYLINE_665_">
	<g>
		<path fill="#7F9FFF" d="M3252.379,1511.965c0.998,0,1.854,0.767,1.958,1.795c0.11,1.095-0.677,2.074-1.76,2.188l-138.948,14.366
			l-148.1,15.322l-117.961,12.609c-0.032,0.003-0.066,0.005-0.102,0.007l-7.568,0.414l-68.445,8.157l-45.9,4.563l-13.355,0.823
			c-1.086,0.065-2.021-0.771-2.086-1.871c-0.065-1.101,0.761-2.046,1.848-2.112l13.283-0.815l45.791-4.554l68.471-8.16
			c0.041-0.006,0.083-0.009,0.123-0.012l7.58-0.413l117.917-12.604l148.105-15.322l138.948-14.368
			C3252.245,1511.969,3252.313,1511.965,3252.379,1511.965z"/>
	</g>
</g>
<g id="LWPOLYLINE_676_">
	<g>
		<path fill="#7F9FFF" d="M2712.079,1568.222c0.976,0,1.822,0.732,1.951,1.737c0.141,1.092-0.619,2.095-1.699,2.236l-13.174,1.739
			l-111.563,14.863l-170.396,20.366c-0.035,0.004-0.07,0.007-0.104,0.009l-105.232,6.859l-83.968,4.9l-81.762,27.379l-61.359,31.444
			c-0.162,0.085-0.336,0.146-0.515,0.181l-32.864,6.441c-1.069,0.209-2.103-0.497-2.31-1.579c-0.206-1.082,0.491-2.129,1.56-2.338
			l32.597-6.391l61.245-31.387c0.088-0.046,0.178-0.083,0.271-0.114l82.147-27.508c0.164-0.056,0.334-0.088,0.506-0.099
			l84.212-4.915l105.167-6.854l170.32-20.356l111.54-14.862l13.176-1.738C2711.908,1568.226,2711.994,1568.222,2712.079,1568.222z"
			/>
	</g>
</g>
</svg>
