<?xml version="1.0" encoding="utf-8"?>
<!-- Generator: Adobe Illustrator 16.0.0, SVG Export Plug-In . SVG Version: 6.00 Build 0)  -->
<!DOCTYPE svg PUBLIC "-//W3C//DTD SVG 1.0//EN" "http://www.w3.org/TR/2001/REC-SVG-20010904/DTD/svg10.dtd">
<svg version="1.0" id="图层_1" xmlns="http://www.w3.org/2000/svg" xmlns:xlink="http://www.w3.org/1999/xlink" x="0px" y="0px"
	 width="9284.344px" height="4770.825px" viewBox="0 0 9284.344 4770.825" enable-background="new 0 0 9284.344 4770.825"
	 xml:space="preserve">
<g>
	<polyline id="fly_4_" fill="none" stroke="#E71F19" stroke-width="10" stroke-miterlimit="10" points="-4296.437,343.963 
		-3064.437,831.963 -1968.437,667.963 -1708.437,395.963 -784.437,279.963 -216.437,607.963 -116.437,1011.963 119.563,1539.963 
		495.563,1407.963 839.563,2087.963 	"/>
	<path id="fly_3_" fill="none" stroke="#E71F19" stroke-width="10" stroke-miterlimit="10" d="M-1508.437-2120.037l92,864l312,156
		L743.089-945.211c0,0,406.479,209.989,658.467,268.486c373.481,109.494,365.982,271.486,365.982,271.486l79.499,167.991
		l488.975,575.971l-244.486,184.49l-1.5,263.987"/>
	<polyline id="fly_2_" fill="none" stroke="#E71F19" stroke-width="10" stroke-miterlimit="10" points="4917.563,555.963 
		4525.563,577.963 4101.563,753.963 3967.563,353.963 2769.563,823.963 1319.563,799.963 1295.563,869.963 905.563,963.963 
		839.563,695.963 687.563,699.963 296.84,813.963 33.563,705.963 -1182.437,1121.963 -1880.437,1241.963 -2774.437,1339.963 
		-4366.437,1359.963 	"/>
	<polyline id="fly_1_" fill="none" stroke="#E71F19" stroke-width="10" stroke-miterlimit="10" points="1831.563,-2204.037 
		1259.563,-1764.037 1447.563,-1668.037 1627.563,-1332.037 923.563,-920.037 227.563,-776.037 -592.437,-796.037 
		-1392.437,-728.037 -1056.437,1751.963 -492.437,2559.963 	"/>
	<polyline id="fly" fill="none" stroke="#E71F19" stroke-width="10" stroke-miterlimit="10" points="1063.563,-612.037 
		839.563,-552.037 735.563,-368.037 275.563,-276.037 -2704.437,111.963 -4296.437,-368.037 	"/>
	<polyline id="fly_x5F_1" fill="none" stroke="#E71F19" stroke-width="10" stroke-miterlimit="10" points="115.563,-724.037 
		219.563,-250.037 219.563,411.963 -12.437,451.963 -48.437,194.579 -508.437,231.963 -532.437,-568.037 	"/>
	<polyline id="fly_x5F_" fill="none" stroke="#E71F19" stroke-width="10" stroke-miterlimit="10" points="4011.016,-1764.57 
		2781.262,-666.418 2336.012,-492.824 2139.391,-250.037 1791.461,53.066 1209.577,251.027 296.84,634.95 	"/>
</g>
</svg>
